<svg width="15" height="26" viewBox="0 0 15 26" fill="none" xmlns="http://www.w3.org/2000/svg">
<path d="M15 17.515C15 12.9 11.22 12.374 8.18305 11.952C4.87305 11.492 3.00005 11.092 3.00005 8.242C3.00005 5.85 5.50705 5 7.65405 5C8.72399 4.96544 9.78683 5.18569 10.7549 5.64262C11.723 6.09954 12.5686 6.78004 13.222 7.628L14.778 6.372C14.0783 5.47217 13.2076 4.71952 12.216 4.1573C11.2244 3.59509 10.1315 3.23441 9.00005 3.096V0H7.00005V3.022C3.38505 3.242 1.00005 5.282 1.00005 8.242C1.00005 12.972 4.83005 13.505 7.90705 13.932C11.16 14.385 13 14.774 13 17.515C13 20.547 9.86705 21 8.00005 21C4.57005 21 3.12205 20.036 1.77805 18.372L0.222046 19.628C1.01481 20.6727 2.04015 21.5182 3.21671 22.0975C4.39327 22.6767 5.68865 22.9737 7.00005 22.965V26H9.00005V22.955C12.726 22.651 15 20.628 15 17.515Z" fill="#263238" fill-opacity="0.4"/>
</svg>
